<?xml version="1.0" encoding="UTF-8" standalone="no"?>
<!-- Created with Inkscape (http://www.inkscape.org/) -->

<svg
   width="22.093735mm"
   height="17.89679mm"
   viewBox="0 0 22.093735 17.89679"
   version="1.1"
   id="svg5"
   xml:space="preserve"
   xmlns="http://www.w3.org/2000/svg"
   xmlns:svg="http://www.w3.org/2000/svg"><defs
     id="defs2" /><g
     id="layer2"
     transform="translate(-142.29311,-188.11306)"><path
       id="path4171"
       style="display:inline;fill:#ffdd55;stroke:#000000;stroke-width:0.514082;stroke-linecap:round;paint-order:markers fill stroke"
       d="m 159.6353,197.06529 a 8.5425739,8.6875238 0 0 1 -8.54257,8.68753 8.5425739,8.6875238 0 0 1 -8.54258,-8.68753 8.5425739,8.6875238 0 0 1 8.54258,-8.68752 8.5425739,8.6875238 0 0 1 8.54257,8.68752 z" /><path
       id="path449"
       style="fill:#28220b;stroke:#000000;stroke-width:0.529167;stroke-linecap:round;stroke-dasharray:none;paint-order:markers fill stroke"
       d="m 151.09259,188.37765 a 8.5425739,8.6875238 0 0 0 -2.35697,0.3421 c 0.006,0.008 0.0111,0.0167 0.0176,0.0248 0.0943,0.11791 1.16467,0.83232 0.9245,0.86662 -4.51272,0.64466 0.7143,1.48194 0.43356,1.76268 -0.51003,0.51003 -2.43676,0.8913 -1.79162,1.21388 1.31887,0.65948 3.32223,0.16043 4.73924,0.75086 1.4013,0.58387 2.53606,1.61631 3.86695,2.29391 1.24966,-0.16779 1.96291,-0.64126 2.2748,-1.28777 a 8.5425739,8.6875238 0 0 0 -8.10803,-5.96708 z" /><path
       style="display:inline;fill:#1a1a1a;stroke:#000000;stroke-width:0.529167;stroke-linecap:round;stroke-dasharray:none;paint-order:markers fill stroke"
       d="m 150.72433,194.69691 c 0,0 0.42606,-1.62029 1.21114,-1.72056 0.70333,-0.0898 1.48749,-0.0596 2.42967,0.8826 -0.37564,2.19604 -3.64081,0.83796 -3.64081,0.83796 z"
       id="path5079" /><path
       style="display:inline;fill:#ff7f2a;stroke:#000000;stroke-width:0.529167;stroke-linecap:round;stroke-dasharray:none;paint-order:markers fill stroke"
       d="m 156.53024,196.45457 c 0,0 1.59473,1.69075 2.86774,1.77139 0.72225,0.0458 3.45659,-4.23589 3.45659,-4.23589 z"
       id="path5083" /><path
       style="display:inline;fill:#ff7f2a;stroke:#000000;stroke-width:0.529167;stroke-linecap:round;stroke-dasharray:none;paint-order:markers fill stroke"
       d="m 158.61276,192.9438 c 0,0 4.22672,-0.28511 5.22661,0.0933 0,0 -2.75305,2.03527 -4.53034,2.98976 -0.95536,0.51307 -3.2091,0.42134 -3.2091,0.42134 1.29818,-0.96987 2.51283,-3.50442 2.51283,-3.50442 z"
       id="path5081" /><path
       style="display:inline;fill:#28220b;stroke:#000000;stroke-width:0.529167;stroke-linecap:round;stroke-dasharray:none;paint-order:markers fill stroke"
       d="m 149.30509,205.56047 h -6.27308 v -5.61869 c 0,0 3.56561,-2.79816 5.17226,-1.45958 1.60666,1.33858 1.10082,7.07827 1.10082,7.07827 z"
       id="path5113" /></g></svg>
